<svg xmlns="http://www.w3.org/2000/svg" xmlns:xlink="http://www.w3.org/1999/xlink" width="100" zoomAndPan="magnify" viewBox="0 0 75 74.999997" height="100" preserveAspectRatio="xMidYMid meet" version="1.0"><defs><clipPath id="11a768de85"><path d="M 10.914062 14 L 64.164062 14 L 64.164062 75 L 10.914062 75 Z M 10.914062 14 " clip-rule="nonzero"/></clipPath></defs><g clip-path="url(#11a768de85)"><path fill="#264de4" d="M 64.148438 14.738281 L 59.296875 68.96875 L 37.503906 75 L 15.773438 68.976562 L 10.929688 14.738281 Z M 64.148438 14.738281 " fill-opacity="1" fill-rule="nonzero"/></g><path fill="#2965f1" d="M 55.148438 65.515625 L 59.289062 19.175781 L 37.539062 19.175781 L 37.539062 70.390625 Z M 55.148438 65.515625 " fill-opacity="1" fill-rule="nonzero"/><path fill="#ebebeb" d="M 22.03125 39.289062 L 22.628906 45.941406 L 37.539062 45.941406 L 37.539062 39.289062 Z M 22.03125 39.289062 " fill-opacity="1" fill-rule="nonzero"/><path fill="#ebebeb" d="M 37.539062 25.824219 L 20.832031 25.824219 L 21.4375 32.476562 L 37.539062 32.476562 Z M 37.539062 25.824219 " fill-opacity="1" fill-rule="nonzero"/><path fill="#ebebeb" d="M 37.539062 63.484375 L 37.539062 56.566406 L 37.507812 56.574219 L 30.089844 54.574219 L 29.613281 49.265625 L 22.925781 49.265625 L 23.859375 59.710938 L 37.507812 63.496094 Z M 37.539062 63.484375 " fill-opacity="1" fill-rule="nonzero"/><path fill="#000000" d="M 23.453125 0 L 31.523438 0 L 31.523438 3.367188 L 26.828125 3.367188 L 26.828125 6.738281 L 31.523438 6.738281 L 31.523438 10.105469 L 23.453125 10.105469 Z M 23.453125 0 " fill-opacity="1" fill-rule="nonzero"/><path fill="#000000" d="M 33.136719 0 L 41.207031 0 L 41.207031 2.929688 L 36.511719 2.929688 L 36.511719 3.515625 L 41.207031 3.515625 L 41.207031 10.253906 L 33.136719 10.253906 L 33.136719 7.175781 L 37.832031 7.175781 L 37.832031 6.589844 L 33.136719 6.589844 Z M 33.136719 0 " fill-opacity="1" fill-rule="nonzero"/><path fill="#000000" d="M 42.820312 0 L 50.890625 0 L 50.890625 2.929688 L 46.195312 2.929688 L 46.195312 3.515625 L 50.890625 3.515625 L 50.890625 10.253906 L 42.820312 10.253906 L 42.820312 7.175781 L 47.515625 7.175781 L 47.515625 6.589844 L 42.820312 6.589844 Z M 42.820312 0 " fill-opacity="1" fill-rule="nonzero"/><path fill="#ffffff" d="M 45.71875 45.941406 L 44.945312 54.570312 L 37.515625 56.570312 L 37.515625 63.492188 L 51.171875 59.710938 L 51.273438 58.589844 L 52.839844 41.074219 L 53 39.289062 L 54.203125 25.824219 L 37.515625 25.824219 L 37.515625 32.476562 L 46.902344 32.476562 L 46.296875 39.289062 L 37.515625 39.289062 L 37.515625 45.941406 Z M 45.71875 45.941406 " fill-opacity="1" fill-rule="nonzero"/></svg>